<?xml version="1.0" standalone="no"?>
<svg id="Untitled-Page%201" viewBox="0 0 32 24" style="background-color:#ffffff00" version="1.1"
	xmlns="http://www.w3.org/2000/svg" xmlns:xlink="http://www.w3.org/1999/xlink" xml:space="preserve"
	x="0px" y="0px" width="32px" height="24px" fill="#000000">
	<path d="M6.5,22c-0.6,0-1,0.4-1,1s0.4,1,1,1h8c0.2,0,0.3,0,0.4-0.1C15.1,24,15.3,24,15.5,24h6c0.8,0,1.5-0.7,1.5-1.5S22.3,21,21.5,21h-6c-0.7,0-1.2,0.4-1.4,1H6.5ZM23,22c0,1.1,0.9,2,2,2s2-0.9,2-2-0.9-2-2-2-2,0.9-2,2Z"/>
</svg>
