<?xml version="1.0" standalone="no"?>
<svg viewBox="0 0 32 24" style="background-color:#ffffff00" version="1.1"
	xmlns="http://www.w3.org/2000/svg" xmlns:xlink="http://www.w3.org/1999/xlink" xml:space="preserve"
	x="0px" y="0px" width="32px" height="24px" fill="#000000">
	<path d="M19.5,11.5c0-0.8-0.7-1.5-1.5-1.5-0.7,0-1.3,0.5-1.5,1.2L13,14.7c-0.3,0.3-0.3,0.7,0,1s0.8,0.3,1.1,0l2.4-2.4v3.2H13c-0.6,0-1,0.4-1,1V23c0,0.6,0.4,1,1,1s1-0.4,1-1V18.5h3c0.2,0,0.3,0,0.4-0.1,0.2,0.1,0.4,0.1,0.6,0.1,0.8,0,1.5-0.7,1.5-1.5V11.5ZM16,8c0,1.1,0.9,2,2,2s2-0.9,2-2-0.9-2-2-2-2,0.9-2,2Z"/>
</svg>
