<?xml version="1.0" standalone="no"?>
<svg viewBox="0 0 32 24" style="background-color:#ffffff00" version="1.1"
	xmlns="http://www.w3.org/2000/svg" xmlns:xlink="http://www.w3.org/1999/xlink" xml:space="preserve"
	x="0px" y="0px" width="32px" height="24px" fill="#000000">
	<path d="M18.5,6h-5c-1.1,0-2,0.9-2,2v5.8c0,0.4,0.3,0.7,0.8,0.7,0.4,0,0.7-0.3,0.7-0.7v-5c0-0.2,0.1-0.3,0.3-0.3,0.1,0,0.2,0.1,0.2,0.3V23c0,0.6,0.4,1,1,1s1-0.4,1-1V15c0-0.3,0.2-0.5,0.5-0.5s0.5,0.2,0.5,0.5v8c0,0.6,0.4,1,1,1s1-0.4,1-1V8.8c0-0.2,0.1-0.3,0.3-0.3,0.1,0,0.2,0.1,0.2,0.3v5c0,0.4,0.3,0.7,0.8,0.7,0.4,0,0.7-0.3,0.7-0.7V8c0-1.1-0.9-2-2-2ZM14,4c0,1.1,0.9,2,2,2s2-0.9,2-2-0.9-2-2-2-2,0.9-2,2Z"/>
</svg>
