<?xml version="1.0" standalone="no"?>
<svg viewBox="0 0 32 24" style="background-color:#ffffff00" version="1.1"
	xmlns="http://www.w3.org/2000/svg" xmlns:xlink="http://www.w3.org/1999/xlink" xml:space="preserve"
	x="0px" y="0px" width="32px" height="24px" fill="#000000">
	<path d="M21.3,19.8c0.6-0.4,0.8-1.2,0.5-1.9V17.8c-0.3-0.4-0.6-0.6-1-0.7-0.3-0.1-0.7,0-1,0.2l-5.1,3.9c-0.3,0.2-0.5,0.5-0.6,0.8H6.5c-0.6,0-1,0.4-1,1s0.4,1,1,1h8c0.2,0,0.4-0.1,0.5-0.1,0.4,0.1,0.8,0,1.2-0.2l5.1-3.9ZM20.5,16c0,0.4,0.1,0.8,0.3,1.1,0.4,0.1,0.7,0.3,1,0.7v0.1C22,18,22.3,18,22.5,18c1.1,0,2-0.9,2-2s-0.9-2-2-2-2,0.9-2,2Z"/>
</svg>
